# xmcd
#
# Track frame offsets:
#	151
#	15693
#	33025
#	46157
#	59288
#	71526
#	90597
#	105425
#	116655
#	129316
#	138587
#	153127
#	168228
#	184437
#	203881
#	223756
#	243208
#	263961
#	294583
#
# Disc length: 4132 seconds
#
# Revision: 0
# Processed by: cddbd v1.4PL0 Copyright (c) Steve Scherf et al.
# Submitted via: dBpowerAMP V4.0
#
DISCID=09102213
DTITLE=John Cunningham - The Basement Bar Tapes
DYEAR=1995
DGENRE=Blues
TTITLE0=Please Don't Bury Me
TTITLE1='Til I'm In My Grave
TTITLE2=Don't Ask Me To Cry
TTITLE3=You Change
TTITLE4=Morning Sky
TTITLE5=Get A Grip
TTITLE6=I Live On A Battlefield
TTITLE7=Not This Time
TTITLE8=Out Of Place
TTITLE9=Sunshine
TTITLE10=It's A Sin
TTITLE11=Point Of A Pin
TTITLE12=Rocky Top
TTITLE13=Pinball Wizard
TTITLE14=I'm Gone
TTITLE15=Bring Back The Conventional War
TTITLE16=Mystery Love
TTITLE17=Sugar Magnolia
TTITLE18=Carolina In My Mind
EXTD=
EXTT0=
EXTT1=
EXTT2=
EXTT3=
EXTT4=
EXTT5=
EXTT6=
EXTT7=
EXTT8=
EXTT9=
EXTT10=
EXTT11=
EXTT12=
EXTT13=
EXTT14=
EXTT15=
EXTT16=
EXTT17=
EXTT18=
PLAYORDER=
